# xmcd CD database file
#
# Track frame offsets:
#	150
#	33849
#	68020
#	126700
#	161253
#	173743
#	227116
#	257233
#
# Disc length: 4262 seconds
#
# Revision: 0
# Processed by: cddbd v1.5.2PL0 Copyright (c) Steve Scherf et al.
# Submitted via: CDex 1.70beta2
#
DISCID=6610a408
DTITLE=Vangelis - Sensitivity plus "Alpha"
DYEAR=1900
DGENRE=New Age
TTITLE0=Rêve
TTITLE1=L'énfant
TTITLE2=Mare tranquilitatis I - The dragon
TTITLE3=Pulstar
TTITLE4=The plurn blossom
TTITLE5=Excerpt from La fete sauvage
TTITLE6=Mare Tranquilitatis II - Alpha
TTITLE7=Spiral - Alpha (Reprise)
EXTD=
EXTT0=
EXTT1=
EXTT2=
EXTT3=
EXTT4=
EXTT5=
EXTT6=
EXTT7=
PLAYORDER=
